# xmcd CD database file
#
# Track frame offsets:
#	150
#	5515
#	26480
#	45702
#	49902
#	72740
#	99677
#	116707
#	139727
#	163200
#	189250
#	207422
#
# Disc length: 3076 seconds
#
# Revision: 3
# Processed by: cddbd v1.5PL3 Copyright (c) Steve Scherf et al.
# Submitted via: CDex 1.50beta8
#
DISCID=b10c020c
DTITLE=En Vogue - Born To Sing
DYEAR=1990
DGENRE=R&B
TTITLE0=Party
TTITLE1=Strange
TTITLE2=Lies
TTITLE3=Hip Hop Bugle Boy
TTITLE4=Hold On
TTITLE5=Part Of Me
TTITLE6=You Don't Have To Worry
TTITLE7=Time Goes On
TTITLE8=Just Can't Stay Away
TTITLE9=Don't Go
TTITLE10=Luv Lines
TTITLE11=Waitin' On You
EXTD=YEAR: 1990
EXTT0=
EXTT1=
EXTT2=
EXTT3=
EXTT4=
EXTT5=
EXTT6=
EXTT7=
EXTT8=
EXTT9=
EXTT10=
EXTT11=
PLAYORDER=
